<?xml version="1.0" standalone="no"?><!-- Generator: Gravit.io --><svg xmlns="http://www.w3.org/2000/svg" xmlns:xlink="http://www.w3.org/1999/xlink" style="isolation:isolate" viewBox="-79 92 384 307.25" width="384" height="307.25"><g id="Symbol 1"><g id="Group"><rect x="-79" y="109" width="384" height="290.25" transform="matrix(1,0,0,1,0,0)" fill="rgb(237,187,180)"/><rect x="-62.25" y="148" width="350.5" height="209.25" transform="matrix(1,0,0,1,0,0)" fill="rgb(211,154,169)"/><rect x="-48.5" y="166.5" width="323" height="110.25" transform="matrix(1,0,0,1,0,0)" fill="rgb(201,197,195)"/><g transform="matrix(1,0,0,1,-62.25,109)"><text transform="matrix(1,0,0,1,0,27.009)" style="font-family:&quot;Open Sans&quot;;font-weight:400;font-size:20px;font-style:normal;fill:#000000;stroke:none;">Pre</text></g><g transform="matrix(1,0,0,1,-62.25,357.25)"><text transform="matrix(1,0,0,1,0,23.759)" style="font-family:&quot;Open Sans&quot;;font-weight:400;font-size:20px;font-style:normal;fill:#000000;stroke:none;">Post</text></g><rect x="-36.375" y="201.75" width="298.75" height="39.5" transform="matrix(1,0,0,1,0,0)" fill="rgb(255,255,255)"/><g transform="matrix(1,0,0,1,-48.5,284.875)"><text transform="matrix(1,0,0,1,0,21.377)" style="font-family:&quot;Open Sans&quot;;font-weight:400;font-size:20px;font-style:normal;fill:#000000;stroke:none;">Application</text></g><g transform="matrix(1,0,0,1,-34.5,169.25)"><text transform="matrix(1,0,0,1,0,21.377)" style="font-family:&quot;Open Sans&quot;;font-weight:400;font-size:20px;font-style:normal;fill:#000000;stroke:none;">Pre Angular</text></g><g transform="matrix(1,0,0,1,-36.375,244.875)"><text transform="matrix(1,0,0,1,0,21.377)" style="font-family:&quot;Open Sans&quot;;font-weight:400;font-size:20px;font-style:normal;fill:#000000;stroke:none;">Post Angular</text></g><g transform="matrix(1,0,0,1,-29.375,205.5)"><text transform="matrix(1,0,0,1,0,21.377)" style="font-family:&quot;Open Sans&quot;;font-weight:400;font-size:20px;font-style:normal;fill:#000000;stroke:none;">Angular</text></g></g></g></svg>