<?xml version="1.0" encoding="UTF-8"?>
<svg width="360px" height="54px" viewBox="0 0 360 54" version="1.1" xmlns="http://www.w3.org/2000/svg" xmlns:xlink="http://www.w3.org/1999/xlink">
    <defs></defs>
    <g id="Page-1" stroke="none" stroke-width="1" fill="none" fill-rule="evenodd">
        <g id="iPad-Pro" transform="translate(-642.000000, -807.000000)" fill="#CC342D">
            <g id="Group-4" transform="translate(642.000000, 807.000000)">
                <path d="M356.796667,21.0083847 C359.324167,21.4485809 360.040833,23.186727 359.9875,25.0078816 L360,24.9818891 L358.8625,39.9804217 L344.075,41 L344.088333,41 C342.860833,40.9480149 340.125,40.8348216 340,36.9862491 L341.370833,34.4708422 L343.72,39.9929988 L344.139167,40.9756844 L346.476667,33.3087243 L346.451667,33.3145936 L346.465,33.2894395 L354.1775,35.7679537 L353.014167,31.2142288 L352.189167,27.9441999 L359.539167,27.4671111 L359.026667,27.0394919 L353.75,22.7113151 L356.799167,21 L356.796667,21.0083847 Z M340,36.9443257 L340,36.9661259 L340,36.9418103 L340,36.9443257 Z M344.275,25.1923448 C347.2425,22.230034 351.0725,20.4793108 352.543333,21.972624 C354.011667,23.4625833 352.455833,27.091477 349.4825,30.0521108 C346.513333,33.0135832 342.73,34.8598918 341.2625,33.3699325 C339.790833,31.8799732 341.3,28.157171 344.2725,25.1948602 L344.275,25.1923448 Z" id="Shape" fill-rule="nonzero"></path>
                <path d="M13.96,12.44 C16.760014,12.44 19.1399902,13.10266 21.1,14.428 C23.0600098,15.75334 24.3946631,17.6293212 25.104,20.056 L23.704,20.784 C23.1066637,18.5439888 21.9586752,16.8173394 20.26,15.604 C18.5613248,14.3906606 16.4613458,13.784 13.96,13.784 C10.3759821,13.784 7.57601008,14.9599882 5.56,17.312 C3.54398992,19.6640118 2.536,22.8933128 2.536,27 C2.536,31.1440207 3.52532344,34.3733218 5.504,36.688 C7.48267656,39.0026782 10.2639821,40.16 13.848,40.16 C16.4240129,40.16 18.6546572,39.49734 20.54,38.172 C22.4253428,36.84666 23.5546648,35.0640112 23.928,32.824 L25.328,33.328 C24.7679972,35.8293458 23.4333439,37.8266592 21.324,39.32 C19.2146561,40.8133408 16.722681,41.56 13.848,41.56 C9.77864632,41.56 6.61467796,40.2720129 4.356,37.696 C2.09732204,35.1199871 0.968,31.5546894 0.968,27 C0.968,22.4453106 2.11598852,18.8800129 4.412,16.304 C6.70801148,13.7279871 9.89064632,12.44 13.96,12.44 Z" id="Path"></path>
                <path d="M43.976,12.44 C48.0453537,12.44 51.246655,13.7279871 53.58,16.304 C55.913345,18.8800129 57.08,22.4453106 57.08,27 C57.08,31.5546894 55.913345,35.1199871 53.58,37.696 C51.246655,40.2720129 48.0453537,41.56 43.976,41.56 C39.8693128,41.56 36.6400118,40.2626796 34.288,37.668 C31.9359882,35.0733204 30.76,31.5173559 30.76,27 C30.76,22.4826441 31.9359882,18.9266796 34.288,16.332 C36.6400118,13.7373204 39.8693128,12.44 43.976,12.44 Z M43.976,13.784 C40.3546486,13.784 37.5080104,14.9599882 35.436,17.312 C33.3639896,19.6640118 32.328,22.8933128 32.328,27 C32.328,31.1066872 33.3639896,34.3359882 35.436,36.688 C37.5080104,39.0400118 40.3546486,40.216 43.976,40.216 C47.5600179,40.216 50.3786564,39.0400118 52.432,36.688 C54.4853436,34.3359882 55.512,31.1066872 55.512,27 C55.512,22.8933128 54.4853436,19.6640118 52.432,17.312 C50.3786564,14.9599882 47.5600179,13.784 43.976,13.784 Z" id="Combined-Shape"></path>
                <path d="M75.56,12.44 C77.2400084,12.44 78.509329,12.8319961 79.368,13.616 L78.808,15.016 C78.3599978,14.6426648 77.8746693,14.3533344 77.352,14.148 C76.8293307,13.9426656 76.1200045,13.84 75.224,13.84 C73.6186586,13.84 72.15334,14.343995 70.828,15.352 C69.50266,16.360005 68.4480039,17.7226581 67.664,19.44 C66.8799961,21.1573419 66.488,22.986657 66.488,24.928 L66.488,41 L64.92,41 L64.92,13 L66.32,13 L66.432,19.664 C67.1413369,17.4986558 68.2986586,15.75334 69.904,14.428 C71.5093414,13.10266 73.3946558,12.44 75.56,12.44 Z" id="Path"></path>
                <path d="M97.512,12.44 C100.760016,12.44 103.326657,13.335991 105.212,15.128 C107.097343,16.920009 108.04,19.4399838 108.04,22.688 L108.04,41 L106.472,41 L106.472,23.08 C106.472,20.0933184 105.650675,17.7973414 104.008,16.192 C102.365325,14.5866586 100.125348,13.784 97.288,13.784 C95.2719899,13.784 93.4333416,14.2599952 91.772,15.212 C90.1106584,16.1640048 88.7946715,17.4519919 87.824,19.076 C86.8533285,20.7000081 86.368,22.5199899 86.368,24.536 L86.368,41 L84.8,41 L84.8,13 L86.256,13 L86.256,19.72 C87.0400039,17.4799888 88.4399899,15.7066732 90.456,14.4 C92.4720101,13.0933268 94.8239866,12.44 97.512,12.44 Z" id="Path"></path>
                <polygon id="Path" points="155.248 13 145.84 41 144.272 41 134.696 15.072 125.176 41 123.608 41 114.256 13 115.936 13 124.448 39.04 133.912 13 135.536 13 145.056 39.04 153.512 13"></polygon>
                <path d="M183.976,40.216 C184.946672,40.216 185.655998,40.0666682 186.104,39.768 L185.992,41.056 C185.431997,41.3920017 184.685338,41.56 183.752,41.56 C180.914652,41.56 179.496,39.7680179 179.496,36.184 L179.496,36.128 C178.711996,37.8453419 177.274677,39.1799952 175.184,40.132 C173.093323,41.0840048 170.872012,41.56 168.52,41.56 C165.75732,41.56 163.582675,40.9626726 161.996,39.768 C160.409325,38.5733274 159.616,36.9120106 159.616,34.784 C159.616,32.5813223 160.446658,30.8266732 162.108,29.52 C163.769342,28.2133268 166.410649,27.2240034 170.032,26.552 L179.496,24.816 L179.496,21.68 C179.496,19.1786542 178.768007,17.2373402 177.312,15.856 C175.855993,14.4746598 173.765347,13.784 171.04,13.784 C168.575988,13.784 166.550675,14.2973282 164.964,15.324 C163.377325,16.3506718 162.192004,17.9653223 161.408,20.168 L160.176,19.272 C161.856008,14.7173106 165.477306,12.44 171.04,12.44 C174.250683,12.44 176.723991,13.2146589 178.46,14.764 C180.196009,16.3133411 181.064,18.5813184 181.064,21.568 L181.064,36.576 C181.064,37.7706726 181.315997,38.6759969 181.82,39.292 C182.324003,39.9080031 183.042662,40.216 183.976,40.216 Z M168.8,40.16 C170.368008,40.16 171.982658,39.8706696 173.644,39.292 C175.305342,38.7133304 176.695994,37.8360059 177.816,36.66 C178.936006,35.4839941 179.496,34.0560084 179.496,32.376 L179.496,26.16 L170.76,27.784 C167.399983,28.3813363 164.973341,29.2493276 163.48,30.388 C161.986659,31.5266724 161.24,32.991991 161.24,34.784 C161.24,36.5013419 161.90266,37.826662 163.228,38.76 C164.55334,39.693338 166.410655,40.16 168.8,40.16 Z" id="Combined-Shape"></path>
                <path d="M192.6,34.728 C192.6,36.6320095 192.907997,38.0039958 193.524,38.844 C194.140003,39.6840042 195.119993,40.104 196.464,40.104 C197.21067,40.104 197.817331,40.0573338 198.284,39.964 C198.750669,39.8706662 199.282664,39.6933346 199.88,39.432 L199.712,40.888 C198.815996,41.3360022 197.67734,41.56 196.296,41.56 C194.503991,41.56 193.178671,41.0186721 192.32,39.936 C191.461329,38.8533279 191.032,37.1546782 191.032,34.84 L191.032,0.12 L192.6,0.12 L192.6,34.728 Z" id="Path"></path>
                <path d="M206.6,34.728 C206.6,36.6320095 206.907997,38.0039958 207.524,38.844 C208.140003,39.6840042 209.119993,40.104 210.464,40.104 C211.21067,40.104 211.817331,40.0573338 212.284,39.964 C212.750669,39.8706662 213.282664,39.6933346 213.88,39.432 L213.712,40.888 C212.815996,41.3360022 211.67734,41.56 210.296,41.56 C208.503991,41.56 207.178671,41.0186721 206.32,39.936 C205.461329,38.8533279 205.032,37.1546782 205.032,34.84 L205.032,0.12 L206.6,0.12 L206.6,34.728 Z" id="Path"></path>
                <path d="M235.104,12.44 C236.37334,12.44 237.38133,12.6453313 238.128,13.056 L237.12,21.12 C236.746665,20.8959989 236.24267,20.7000008 235.608,20.532 C234.97333,20.3639992 234.301337,20.28 233.592,20.28 C231.799991,20.28 230.306673,20.8493276 229.112,21.988 C227.917327,23.1266724 227.32,24.7599894 227.32,26.888 L227.32,41 L217.8,41 L217.8,13 L226.2,13 L226.592,19.048 C227.264003,16.9199894 228.318659,15.2866724 229.756,14.148 C231.193341,13.0093276 232.975989,12.44 235.104,12.44 Z" id="Path"></path>
                <path d="M269.768,13 L269.768,41 L261.256,41 L260.976,35.792 C259.221325,39.6373526 255.992024,41.56 251.288,41.56 C248.301318,41.56 245.958675,40.7666746 244.26,39.18 C242.561325,37.5933254 241.712,35.1013503 241.712,31.704 L241.712,13 L251.232,13 L251.232,29.296 C251.232,31.1253425 251.54933,32.4133296 252.184,33.16 C252.81867,33.9066704 253.789327,34.28 255.096,34.28 C256.664008,34.28 257.914662,33.7480053 258.848,32.684 C259.781338,31.6199947 260.248,30.0053442 260.248,27.84 L260.248,13 L269.768,13 Z" id="Path"></path>
                <path d="M294.576,12.44 C298.160018,12.44 300.978656,13.7279871 303.032,16.304 C305.085344,18.8800129 306.112,22.4826435 306.112,27.112 C306.112,31.6666894 305.10401,35.2133206 303.088,37.752 C301.07199,40.2906794 298.234685,41.56 294.576,41.56 C292.373322,41.56 290.460008,40.9720059 288.836,39.796 C287.211992,38.6199941 286.008004,37.0426766 285.224,35.064 L284.944,41 L276.6,41 L276.6,1.128 L286.12,1.128 L286.12,17.704 C286.904004,16.0613251 288.014659,14.773338 289.452,13.84 C290.889341,12.906662 292.597323,12.44 294.576,12.44 Z M291.272,34.56 C292.952008,34.56 294.249329,33.9440062 295.164,32.712 C296.078671,31.4799938 296.536,29.5760129 296.536,27 C296.536,24.4239871 296.078671,22.5200062 295.164,21.288 C294.249329,20.0559938 292.952008,19.44 291.272,19.44 C289.629325,19.44 288.360004,20.0746603 287.464,21.344 C286.567996,22.6133397 286.12,24.4053218 286.12,26.72 L286.12,27.28 C286.12,29.6693453 286.577329,31.4799938 287.492,32.712 C288.406671,33.9440062 289.666659,34.56 291.272,34.56 Z" id="Combined-Shape"></path>
                <path d="M330.024,41 C328.978661,43.9866816 327.840006,46.3573246 326.608,48.112 C325.375994,49.8666754 323.920008,51.1266628 322.24,51.892 C320.559992,52.6573372 318.525345,53.04 316.136,53.04 C312.962651,53.04 310.42401,52.3493402 308.52,50.968 L310.536,44.584 C311.133336,45.1440028 311.795996,45.5266656 312.524,45.732 C313.252004,45.9373344 314.194661,46.04 315.352,46.04 C316.509339,46.04 317.423997,45.844002 318.096,45.452 C318.768003,45.059998 319.309331,44.360005 319.72,43.352 L320.392,41.616 L317.144,34 L308.8,13 L319.272,13 L323.584,28.96 L324.928,34.896 L326.44,28.736 L330.752,13 L340.272,13 L330.024,41 Z" id="Path"></path>
            </g>
        </g>
    </g>
</svg>